<svg width="32" height="32" viewBox="0 0 32 32" fill="none" xmlns="http://www.w3.org/2000/svg">
  <!-- Line 1 - messy diagonal -->
  <path d="M 6,8 Q 8.5,10.2 10,12.5 Q 11.8,14.2 13.2,16.8 Q 15,18.5 17.2,20.3 Q 19.5,22.8 21,24.5 Q 23.2,26.3 25.5,27.8"
        stroke="#2a2a2a"
        stroke-width="1.4"
        stroke-linecap="round"
        fill="none"
        opacity="0.65"/>
  <path d="M 6.5,8.5 Q 8.2,10.8 9.5,13 Q 11.2,14.8 12.8,17.2 Q 14.5,19 16.8,20.8 Q 19.2,23 20.5,24.8 Q 22.8,26.5 25,28"
        stroke="#2a2a2a"
        stroke-width="1.1"
        stroke-linecap="round"
        fill="none"
        opacity="0.5"/>

  <!-- Line 2 - wavy upward -->
  <path d="M 14.5,27 Q 13.8,24.5 15.2,22 Q 14.5,19.3 15.8,17 Q 14.8,14.5 16.2,12.3 Q 15.5,9.8 16.8,7.5 Q 15.2,5.8 17,4"
        stroke="#2a2a2a"
        stroke-width="1.3"
        stroke-linecap="round"
        fill="none"
        opacity="0.6"/>
  <path d="M 15.2,27.5 Q 14.2,25 15.8,22.5 Q 15,19.8 16.5,17.5 Q 15.5,15 17,12.8 Q 16.2,10.3 17.5,8 Q 16,6.2 17.5,4.5"
        stroke="#2a2a2a"
        stroke-width="1.0"
        stroke-linecap="round"
        fill="none"
        opacity="0.45"/>

  <!-- Line 3 - irregular horizontal-ish -->
  <path d="M 5,17.5 Q 7.8,16.8 10,17.8 Q 12.5,16.5 15,17.2 Q 17.8,16.8 20,17.5 Q 22.5,16.8 25,18 Q 27.2,17.2 28.5,17.8"
        stroke="#2a2a2a"
        stroke-width="1.5"
        stroke-linecap="round"
        fill="none"
        opacity="0.7"/>
  <path d="M 4.5,18 Q 7.2,17.2 9.5,18.5 Q 12,17 14.5,17.8 Q 17.2,17.2 19.5,18.2 Q 22,17.5 24.5,18.5 Q 26.8,17.8 28,18.3"
        stroke="#2a2a2a"
        stroke-width="1.2"
        stroke-linecap="round"
        fill="none"
        opacity="0.55"/>

  <!-- Line 4 - chaotic diagonal opposite -->
  <path d="M 26.5,9 Q 24,11.5 22.5,13.8 Q 20.2,15.5 18.5,17.8 Q 16.2,20 14,22.5 Q 11.8,24.8 9.5,26.5 Q 7.2,28 5.5,28.8"
        stroke="#2a2a2a"
        stroke-width="1.3"
        stroke-linecap="round"
        fill="none"
        opacity="0.6"/>
  <path d="M 27,9.5 Q 24.5,12 23,14.5 Q 20.8,16.2 19,18.5 Q 16.8,20.5 14.5,23 Q 12.2,25.2 10,27 Q 7.5,28.5 6,29"
        stroke="#2a2a2a"
        stroke-width="1.0"
        stroke-linecap="round"
        fill="none"
        opacity="0.48"/>

  <!-- Line 5 - extra wonky middle -->
  <path d="M 11,6 Q 12.5,9 13,12.5 Q 13.8,15.2 15.5,17 Q 14.2,19.5 13.5,22 Q 14.8,24.5 13,27"
        stroke="#2a2a2a"
        stroke-width="1.2"
        stroke-linecap="round"
        fill="none"
        opacity="0.5"/>

  <!-- Line 6 - random swoosh -->
  <path d="M 8,14 Q 10.5,13.5 12.5,15 Q 15,13.8 17.5,15.5 Q 20,14.5 22.5,16 Q 25,15.2 26.5,16.8"
        stroke="#2a2a2a"
        stroke-width="1.1"
        stroke-linecap="round"
        fill="none"
        opacity="0.45"/>
</svg>