<svg width="32" height="32" viewBox="0 0 32 32" fill="none" xmlns="http://www.w3.org/2000/svg">
  <!-- Base filled star shape - solid black -->
  <path d="M 16,5 L 18.5,13.2 L 27,14.5 L 21,21 L 23.5,29 L 16,24 L 8.5,29 L 11,21 L 5,14.5 L 13.5,13.2 Z"
        fill="#1a1a1a"
        opacity="0.8"/>

  <!-- Messy outline - multiple passes -->
  <path d="M 16,5.5 Q 17.5,9 18.2,13 Q 19,13.8 22,14.2 Q 25.5,14.8 27,14.8 Q 24,18 21.5,20.5 Q 21.2,24 22.8,27 Q 23.5,28.5 23.8,29.2 Q 20,26 17.5,24.5 Q 16.2,24 16,24.2 Q 14.5,25 11,27.5 Q 9,28.8 8.8,29 Q 10,24 11.2,21.2 Q 11.5,19.5 10.5,18 Q 8.5,16 6,15 Q 5.2,14.8 5,14.5 Q 9,14 12.5,13.5 Q 13.8,13.2 14.2,11 Q 15,8 15.8,5.8 Q 16,5.3 16,5.5 Z"
        stroke="#2a2a2a"
        stroke-width="1.4"
        stroke-linecap="round"
        stroke-linejoin="round"
        fill="none"
        opacity="0.6"/>

  <!-- Second outline pass for extra messiness -->
  <path d="M 16.2,5.2 Q 17.8,8.8 18.5,12.8 Q 19.2,13.5 22.2,14 Q 25.8,14.5 27.2,14.6 Q 24.2,17.8 21.8,20.3 Q 21.5,23.8 23,26.8 Q 23.8,28.3 24,29 Q 20.2,26.2 17.8,24.8 Q 16.5,24.3 16.2,24.5 Q 14.8,25.2 11.2,27.8 Q 9.2,29 9,29.2 Q 10.2,24.2 11.5,21.5 Q 11.8,19.8 10.8,18.2 Q 8.8,16.2 6.2,15.2 Q 5.5,15 5.2,14.8 Q 9.2,14.2 12.8,13.8 Q 14.2,13.5 14.5,11.2 Q 15.2,8.2 16,6 Q 16.2,5.5 16.2,5.2 Z"
        stroke="#2a2a2a"
        stroke-width="1.1"
        stroke-linecap="round"
        stroke-linejoin="round"
        fill="none"
        opacity="0.45"/>
</svg>